<?xml version="1.0" encoding="utf-8"?>
<!-- Generator: Adobe Illustrator 16.0.4, SVG Export Plug-In . SVG Version: 6.00 Build 0)  -->
<!DOCTYPE svg PUBLIC "-//W3C//DTD SVG 1.1//EN" "http://www.w3.org/Graphics/SVG/1.1/DTD/svg11.dtd">
<svg version="1.1" id="Capa_1" xmlns="http://www.w3.org/2000/svg" xmlns:xlink="http://www.w3.org/1999/xlink" x="0px" y="0px"
	 width="32px" height="31px" viewBox="0 0 32 31" enable-background="new 0 0 32 31" xml:space="preserve">
<path d="M31,4L9,0C8.795,0,8.598,0.107,8.411,0.309L8.397,0.292L2,5.66V3.996C2,3.446,1.556,3,1,3C0.447,3,0,3.439,0,3.996v26.008
	C0,30.555,0.444,31,1,31c0.553,0,1-0.439,1-0.996V8.305l6.385,5.358C8.579,13.882,8.785,14,9,14l22-4c0.553,0,1-1.343,1-3
	S31.553,4,31,4z M7.495,11.61L2,7V6.966l5.506-4.62C7.191,3.583,7,5.213,7,7C7,8.766,7.187,10.379,7.495,11.61z M9.5,13
	C8.672,13,8,10.313,8,7s0.672-6,1.5-6S11,3.687,11,7S10.328,13,9.5,13z M20,11l-4.645,0.929C15.745,10.845,16,9.042,16,7
	s-0.255-3.845-0.645-4.929L20,3c0.553,0,1,1.791,1,4S20.553,11,20,11z M29,9.5l-3.611,0.723C25.76,9.494,26,8.322,26,7
	s-0.24-2.494-0.611-3.223L29,4.5c0.275,0,0.5,1.119,0.5,2.5S29.275,9.5,29,9.5z"/>
</svg>
