<?xml version="1.0" encoding="utf-8"?>
<!-- Generator: Adobe Illustrator 16.0.4, SVG Export Plug-In . SVG Version: 6.00 Build 0)  -->
<!DOCTYPE svg PUBLIC "-//W3C//DTD SVG 1.1//EN" "http://www.w3.org/Graphics/SVG/1.1/DTD/svg11.dtd">
<svg version="1.1" id="Capa_1" xmlns="http://www.w3.org/2000/svg" xmlns:xlink="http://www.w3.org/1999/xlink" x="0px" y="0px"
	 width="32px" height="20px" viewBox="0 0 32 20" enable-background="new 0 0 32 20" xml:space="preserve">
<path d="M27.586,8.212C26.66,5.751,24.284,4,21.5,4c-0.641,0-1.26,0.093-1.846,0.266C18.068,1.705,15.233,0,12,0
	C7.096,0,3.106,3.924,3.002,8.803C1.207,9.842,0,11.783,0,14c0,3.312,2.688,6,6,6h20c3.312,0,6-2.693,6-6
	C32,11.234,30.13,8.907,27.586,8.212z M16,17c-0.553,0-1-0.447-1-1s0.447-1,1-1c0.553,0,1,0.447,1,1S16.553,17,16,17z M17,11.997
	C17,12.562,16.553,13,16,13c-0.556,0-1-0.449-1-1.003V7.003C15,6.438,15.447,6,16,6c0.557,0,1,0.449,1,1.003V11.997z"/>
</svg>
