<?xml version="1.0" encoding="utf-8"?>
<!-- Generator: Adobe Illustrator 16.0.4, SVG Export Plug-In . SVG Version: 6.00 Build 0)  -->
<!DOCTYPE svg PUBLIC "-//W3C//DTD SVG 1.1//EN" "http://www.w3.org/Graphics/SVG/1.1/DTD/svg11.dtd">
<svg version="1.1" id="Capa_1" xmlns="http://www.w3.org/2000/svg" xmlns:xlink="http://www.w3.org/1999/xlink" x="0px" y="0px"
	 width="32px" height="27px" viewBox="0 0 32 27" enable-background="new 0 0 32 27" xml:space="preserve">
<g>
	<path d="M20,23c-0.553,0-1,0.443-1,1.01v1.98c0,0.558,0.443,1.01,1,1.01c0.553,0,1-0.443,1-1.01v-1.98C21,23.452,20.557,23,20,23z"
		/>
	<path d="M16,21c-0.553,0-1,0.443-1,1.01v1.98c0,0.558,0.444,1.01,1,1.01c0.553,0,1-0.443,1-1.01v-1.98C17,21.452,16.557,21,16,21z"
		/>
	<path d="M12,23c-0.553,0-1,0.443-1,1.01v1.98c0,0.558,0.444,1.01,1,1.01c0.553,0,1-0.443,1-1.01v-1.98C13,23.452,12.556,23,12,23z"
		/>
	<path d="M27.586,8.212C26.66,5.751,24.284,4,21.5,4c-0.641,0-1.26,0.093-1.846,0.266C18.068,1.705,15.233,0,12,0
		C7.096,0,3.106,3.923,3.002,8.803C1.207,9.842,0,11.783,0,14c0,3.312,2.687,6,6,6h20c3.312,0,6-2.693,6-6
		C32,11.235,30.13,8.907,27.586,8.212z"/>
	<path d="M24,21c-0.553,0-1,0.443-1,1.01v1.98c0,0.558,0.443,1.01,1,1.01c0.553,0,1-0.443,1-1.01v-1.98C25,21.452,24.557,21,24,21z"
		/>
	<path d="M8,21c-0.553,0-1,0.443-1,1.01v1.98C7,24.548,7.444,25,8,25c0.553,0,1-0.443,1-1.01v-1.98C9,21.452,8.556,21,8,21z"/>
</g>
</svg>
