<?xml version="1.0" encoding="utf-8"?>
<!-- Generator: Adobe Illustrator 16.0.4, SVG Export Plug-In . SVG Version: 6.00 Build 0)  -->
<!DOCTYPE svg PUBLIC "-//W3C//DTD SVG 1.1//EN" "http://www.w3.org/Graphics/SVG/1.1/DTD/svg11.dtd">
<svg version="1.1" id="Capa_1" xmlns="http://www.w3.org/2000/svg" xmlns:xlink="http://www.w3.org/1999/xlink" x="0px" y="0px"
	 width="32px" height="32px" viewBox="0 0 32 32" enable-background="new 0 0 32 32" xml:space="preserve">
<path d="M17,2.02V0.998C17,0.447,16.557,0,16,0c-0.553,0-1,0.455-1,0.998V2.02C6.629,2.342,0,6.688,0,12
	c0,0.453,0.048,0.898,0.142,1.335C0.484,12.558,1.41,12,2.5,12C3.881,12,5,12.896,5,14c0-1.104,1.119-2,2.5-2s2.5,0.896,2.5,2
	c0-1.104,1.119-2,2.5-2s2.5,0.896,2.5,2v12v0.171V29c0,0.557-0.447,1-1,1c-0.556,0-1-0.447-1-1v-0.01V28v-0.99
	c0-0.558-0.444-1.01-1-1.01c-0.553,0-1,0.443-1,1.01v1.98c0,0.002,0,0.003,0,0.004c0,0.002,0,0.004,0,0.006c0,1.657,1.347,3,3,3
	c1.657,0,3-1.348,3-3V14c0-1.104,1.119-2,2.5-2s2.5,0.896,2.5,2c0-1.104,1.119-2,2.5-2s2.5,0.896,2.5,2c0-1.104,1.119-2,2.5-2
	c1.09,0,2.016,0.558,2.357,1.335C31.952,12.898,32,12.453,32,12C32,6.688,25.371,2.342,17,2.02z"/>
</svg>
