<?xml version="1.0" encoding="utf-8"?>
<!-- Generator: Adobe Illustrator 16.0.4, SVG Export Plug-In . SVG Version: 6.00 Build 0)  -->
<!DOCTYPE svg PUBLIC "-//W3C//DTD SVG 1.1//EN" "http://www.w3.org/Graphics/SVG/1.1/DTD/svg11.dtd">
<svg version="1.1" id="Capa_1" xmlns="http://www.w3.org/2000/svg" xmlns:xlink="http://www.w3.org/1999/xlink" x="0px" y="0px"
	 width="32px" height="28px" viewBox="0 0 32 28" enable-background="new 0 0 32 28" xml:space="preserve">
<g>
	<path d="M13,25.475C13,26.869,14.343,28,16,28s3-1.131,3-2.525C19,23.789,16,20,16,20S13,23.789,13,25.475z"/>
	<path d="M27.585,13.212c-0.376-0.999-0.991-1.882-1.774-2.577c1.152-0.948,1.945-2.318,2.143-3.874C27.497,6.916,27.008,7,26.5,7
		C24.016,7,22,4.985,22,2.5c0-0.906,0.268-1.75,0.729-2.456C22.49,0.015,22.247,0,22,0c-0.549,0-1.081,0.073-1.586,0.212
		C17.891,0.902,16.029,3.2,16,5.936C14.795,5.337,13.437,5,12,5c-4.904,0-8.894,3.924-8.998,8.803C1.207,14.842,0,16.783,0,19
		c0,3.312,2.687,6,6,6h5.48c1.253-3.286,4.52-7,4.52-7s3.268,3.714,4.52,7H26c3.312,0,6-2.693,6-6
		C32,16.234,30.13,13.907,27.585,13.212z M23.966,9.484C23.206,9.172,22.373,9,21.5,9c-0.632,0-1.243,0.09-1.82,0.258
		c-0.018-0.013-0.035-0.025-0.052-0.038c-0.368-0.586-0.802-1.127-1.291-1.611C18.12,7.116,18,6.572,18,6
		c0-1.48,0.805-2.773,2-3.465c0.016,3.009,2.077,5.534,4.863,6.257C24.6,9.063,24.298,9.296,23.966,9.484z"/>
</g>
</svg>
