<?xml version="1.0" encoding="utf-8"?>
<!-- Generator: Adobe Illustrator 16.0.4, SVG Export Plug-In . SVG Version: 6.00 Build 0)  -->
<!DOCTYPE svg PUBLIC "-//W3C//DTD SVG 1.1//EN" "http://www.w3.org/Graphics/SVG/1.1/DTD/svg11.dtd">
<svg version="1.1" id="Capa_1" xmlns="http://www.w3.org/2000/svg" xmlns:xlink="http://www.w3.org/1999/xlink" x="0px" y="0px"
	 width="32px" height="28px" viewBox="0 0 32 28" enable-background="new 0 0 32 28" xml:space="preserve">
<g>
	<path d="M13,25.475C13,26.869,14.343,28,16,28s3-1.131,3-2.525C19,23.789,16,20,16,20S13,23.789,13,25.475z"/>
	<path d="M20.997,4c0.553,0,1-0.443,1-1.01V1.01c0-0.558-0.442-1.01-1-1.01c-0.552,0-0.999,0.444-0.999,1.01v1.98
		C19.998,3.548,20.441,4,20.997,4z"/>
	<path d="M28,11.004c0,0.552,0.443,1,1.01,1h1.981c0.557,0,1.009-0.444,1.009-1c0-0.553-0.443-1-1.009-1H29.01
		C28.452,10.004,28,10.448,28,11.004z"/>
	<path d="M27.583,13.212c-0.172-0.456-0.392-0.887-0.657-1.287c0.047-0.302,0.071-0.611,0.071-0.925c0-3.313-2.687-6-6-6
		c-1.532,0-2.931,0.575-3.991,1.521C15.574,5.561,13.852,5,11.999,5c-4.904,0-8.893,3.924-8.997,8.803C1.207,14.842,0,16.783,0,19
		c0,3.312,2.687,6,5.999,6h5.481c0.252-0.66,0.585-1.339,0.957-2H5.996C3.794,23,2,21.209,2,19c0-1.893,1.317-3.482,3.086-3.896
		C5.029,14.745,4.999,14.376,4.999,14c0-3.866,3.134-7,7-7c3.161,0,5.833,2.097,6.701,4.975C19.469,11.364,20.439,11,21.497,11
		c2.317,0,4.224,1.75,4.474,4H26c2.202,0,3.996,1.791,3.996,4c0,2.205-1.789,4-3.996,4h-6.438c0.373,0.661,0.705,1.34,0.957,2h5.478
		c3.313,0,5.999-2.693,5.999-6C31.996,16.234,30.126,13.907,27.583,13.212z M21.497,9c-0.642,0-1.261,0.093-1.843,0.266
		c-0.319-0.515-0.688-0.994-1.1-1.432C19.229,7.311,20.077,7,20.997,7c1.84,0,3.39,1.241,3.856,2.933
		C23.873,9.341,22.727,9,21.497,9z"/>
	<path d="M27.37,6.045l1.399-1.401c0.396-0.395,0.4-1.027,0.008-1.421c-0.393-0.39-1.021-0.393-1.422,0.007l-1.399,1.401
		c-0.396,0.394-0.401,1.027-0.007,1.421C26.34,6.441,26.971,6.445,27.37,6.045z"/>
</g>
</svg>
