<?xml version="1.0" encoding="utf-8"?>
<!-- Generator: Adobe Illustrator 16.0.4, SVG Export Plug-In . SVG Version: 6.00 Build 0)  -->
<!DOCTYPE svg PUBLIC "-//W3C//DTD SVG 1.1//EN" "http://www.w3.org/Graphics/SVG/1.1/DTD/svg11.dtd">
<svg version="1.1" id="Capa_1" xmlns="http://www.w3.org/2000/svg" xmlns:xlink="http://www.w3.org/1999/xlink" x="0px" y="0px"
	 width="31.996px" height="23px" viewBox="0 0 31.996 23" enable-background="new 0 0 31.996 23" xml:space="preserve">
<g>
	<path d="M13,20.475C13,21.869,14.343,23,16,23s3-1.131,3-2.525C19,18.789,16,15,16,15S13,18.789,13,20.475z"/>
	<path d="M27.583,8.212C26.657,5.751,24.281,4,21.497,4c-0.642,0-1.261,0.093-1.843,0.266C18.066,1.705,15.232,0,11.999,0
		C7.094,0,3.106,3.924,3.002,8.803C1.208,9.842,0,11.783,0,14c0,3.312,2.687,6,6,6h5.481C12.733,16.714,16,13,16,13
		s3.268,3.714,4.52,7h5.478c3.313,0,5.999-2.693,5.999-6C31.996,11.235,30.126,8.907,27.583,8.212z"/>
</g>
</svg>
