<?xml version="1.0" encoding="utf-8"?>
<!-- Generator: Adobe Illustrator 16.0.4, SVG Export Plug-In . SVG Version: 6.00 Build 0)  -->
<!DOCTYPE svg PUBLIC "-//W3C//DTD SVG 1.1//EN" "http://www.w3.org/Graphics/SVG/1.1/DTD/svg11.dtd">
<svg version="1.1" id="Capa_1" xmlns="http://www.w3.org/2000/svg" xmlns:xlink="http://www.w3.org/1999/xlink" x="0px" y="0px"
	 width="32.004px" height="29px" viewBox="0 0 32.004 29" enable-background="new 0 0 32.004 29" xml:space="preserve">
<g>
	<path d="M27.586,13.212c-0.172-0.456-0.393-0.887-0.656-1.287C26.977,11.623,27,11.314,27,11c0-3.313-2.688-6-6-6
		c-1.533,0-2.932,0.575-3.992,1.521C15.576,5.561,13.854,5,12,5c-4.904,0-8.894,3.924-8.998,8.803C1.207,14.842,0,16.783,0,19
		c0,3.312,2.688,6,6,6h3.269C9.098,24.706,9,24.364,9,24c0-0.365,0.097-0.707,0.267-1h-3.27C3.794,23,2,21.209,2,19
		c0-1.893,1.317-3.482,3.087-3.896C5.029,14.745,5,14.376,5,14c0-3.866,3.134-7,7-7c3.162,0,5.834,2.097,6.702,4.975
		C19.471,11.364,20.441,11,21.5,11c2.316,0,4.225,1.75,4.473,4h0.03C28.206,15,30,16.791,30,19c0,2.205-1.789,4-3.998,4H22.73
		c0.172,0.294,0.27,0.636,0.27,1c0,0.365-0.098,0.707-0.268,1H26c3.312,0,6-2.693,6-6C32,16.234,30.13,13.907,27.586,13.212z
		 M21.5,9c-0.641,0-1.26,0.093-1.844,0.266c-0.319-0.515-0.688-0.994-1.1-1.432C19.23,7.311,20.079,7,21,7
		c1.839,0,3.389,1.241,3.855,2.933C23.876,9.341,22.729,9,21.5,9z"/>
	<path d="M20.005,23h-1.591l0.416-0.416c0.391-0.391,0.393-1.02-0.002-1.412c-0.391-0.391-1.027-0.387-1.412-0.002L17,21.586v-1.591
		C17,19.445,16.557,19,16,19c-0.553,0-1,0.456-1,0.995v1.591l-0.416-0.416c-0.39-0.391-1.019-0.393-1.412,0.002
		c-0.391,0.391-0.387,1.027-0.002,1.412L13.586,23h-1.591C11.445,23,11,23.443,11,24c0,0.553,0.456,1,0.995,1h1.591l-0.416,0.416
		c-0.39,0.391-0.392,1.02,0.002,1.412c0.391,0.391,1.027,0.387,1.412,0.002L15,26.414v1.591C15,28.555,15.444,29,16,29
		c0.553,0,1-0.456,1-0.995v-1.591l0.416,0.416c0.391,0.391,1.02,0.393,1.412-0.002c0.391-0.391,0.387-1.027,0.002-1.412L18.414,25
		h1.591C20.555,25,21,24.557,21,24C21,23.447,20.544,23,20.005,23z M16,25c-0.556,0-1-0.447-1-1c0-0.557,0.447-1,1-1
		c0.557,0,1,0.447,1,1C17,24.557,16.553,25,16,25z"/>
	<path d="M27.373,6.045l1.4-1.401c0.396-0.394,0.399-1.027,0.008-1.421c-0.391-0.39-1.021-0.393-1.422,0.007l-1.4,1.401
		c-0.395,0.394-0.4,1.027-0.007,1.421C26.343,6.441,26.973,6.445,27.373,6.045z"/>
	<path d="M21,4c0.553,0,1-0.443,1-1.01V1.01C22,0.452,21.557,0,21,0c-0.553,0-1,0.443-1,1.01v1.98C20,3.548,20.443,4,21,4z"/>
	<path d="M28.004,11.004c0,0.552,0.443,1,1.01,1h1.98c0.558,0,1.01-0.444,1.01-1c0-0.553-0.443-1-1.01-1h-1.98
		C28.456,10.004,28.004,10.447,28.004,11.004z"/>
</g>
</svg>
