<?xml version="1.0" encoding="utf-8"?>
<!-- Generator: Adobe Illustrator 16.0.4, SVG Export Plug-In . SVG Version: 6.00 Build 0)  -->
<!DOCTYPE svg PUBLIC "-//W3C//DTD SVG 1.1//EN" "http://www.w3.org/Graphics/SVG/1.1/DTD/svg11.dtd">
<svg version="1.1" id="Capa_1" xmlns="http://www.w3.org/2000/svg" xmlns:xlink="http://www.w3.org/1999/xlink" x="0px" y="0px"
	 width="32px" height="23px" viewBox="0 0 32 23" enable-background="new 0 0 32 23" xml:space="preserve">
<g>
	<path d="M16,9c-3.526,0-6.444,2.607-6.929,6H11.1c0.463-2.282,2.481-4,4.9-4c1.895,0,3.544,1.055,4.393,2.607L19,15h1h0.9h2.029H23
		v-4l-1.15,1.15C20.598,10.253,18.443,9,16,9z"/>
	<path d="M16,21c-1.895,0-3.544-1.055-4.392-2.607L13,17h-1.9H9.071H9v1v2v1l1.15-1.15c1.252,1.897,3.405,3.15,5.849,3.15
		c3.526,0,6.444-2.607,6.929-6H20.9C20.438,19.282,18.419,21,16,21z"/>
	<path d="M27.586,8.212C26.66,5.751,24.284,4,21.5,4c-0.641,0-1.26,0.093-1.846,0.266C18.068,1.705,15.233,0,12,0
		C7.096,0,3.106,3.924,3.002,8.803C1.207,9.842,0,11.783,0,14c0,3.312,2.688,6,6,6h1v-2H5.997C3.794,18,2,16.209,2,14
		c0-1.893,1.317-3.482,3.087-3.896C5.029,9.745,5,9.376,5,9c0-3.866,3.134-7,7-7c3.162,0,5.834,2.097,6.702,4.975
		C19.471,6.364,20.441,6,21.5,6c2.316,0,4.225,1.75,4.473,4h0.03C28.206,10,30,11.791,30,14c0,2.205-1.789,4-3.997,4h-1.226
		c-0.159,0.701-0.401,1.371-0.713,2H26c3.312,0,6-2.693,6-6C32,11.235,30.13,8.907,27.586,8.212z"/>
</g>
</svg>
