<?xml version="1.0" encoding="utf-8"?>
<!-- Generator: Adobe Illustrator 16.0.4, SVG Export Plug-In . SVG Version: 6.00 Build 0)  -->
<!DOCTYPE svg PUBLIC "-//W3C//DTD SVG 1.1//EN" "http://www.w3.org/Graphics/SVG/1.1/DTD/svg11.dtd">
<svg version="1.1" id="Capa_1" xmlns="http://www.w3.org/2000/svg" xmlns:xlink="http://www.w3.org/1999/xlink" x="0px" y="0px"
	 width="32px" height="28px" viewBox="0 0 32 28" enable-background="new 0 0 32 28" xml:space="preserve">
<g>
	<path d="M27.586,12.212C26.66,9.751,24.284,8,21.5,8c-0.641,0-1.26,0.093-1.846,0.266C18.068,5.705,15.233,4,12,4
		c-4.904,0-8.894,3.924-8.998,8.803C1.207,13.842,0,15.783,0,18c0,1.999,0.978,3.77,2.481,4.859c0.387-0.815,0.988-1.51,1.731-2.01
		C4.941,18.059,7.48,16,10.5,16c1.848,0,3.515,0.771,4.698,2.008c0.1-0.005,0.2-0.008,0.302-0.008c2.367,0,4.385,1.495,5.16,3.592
		c0.615,0.661,1.052,1.488,1.24,2.408H26c3.312,0,6-2.693,6-6C32,15.234,30.13,12.907,27.586,12.212z"/>
	<path d="M20.529,6.055C20.85,6.019,21.172,6,21.5,6c3.01,0,5.654,1.564,7.165,3.924C30.002,9.618,31,8.423,31,7
		c0-0.935-0.426-1.77-1.098-2.319C29.534,3.143,28.15,2,26.5,2c-0.398,0-0.781,0.066-1.139,0.189C24.576,0.878,23.141,0,21.5,0
		c-2.064,0-3.805,1.391-4.334,3.286C18.464,3.978,19.607,4.923,20.529,6.055z"/>
	<path d="M15.5,20c-0.398,0-0.781,0.066-1.138,0.189C13.576,18.878,12.141,18,10.5,18c-2.374,0-4.318,1.838-4.488,4.169
		C4.84,22.58,4,23.693,4,25c0,1.657,1.337,3,3.01,3h9.98c1.662,0,3.01-1.348,3.01-3c0-0.936-0.426-1.77-1.098-2.318
		C18.534,21.143,17.15,20,15.5,20z"/>
</g>
</svg>
