<?xml version="1.0" encoding="utf-8"?>
<!-- Generator: Adobe Illustrator 16.0.4, SVG Export Plug-In . SVG Version: 6.00 Build 0)  -->
<!DOCTYPE svg PUBLIC "-//W3C//DTD SVG 1.1//EN" "http://www.w3.org/Graphics/SVG/1.1/DTD/svg11.dtd">
<svg version="1.1" id="Capa_1" xmlns="http://www.w3.org/2000/svg" xmlns:xlink="http://www.w3.org/1999/xlink" x="0px" y="0px"
	 width="32px" height="29px" viewBox="0 0 32 29" enable-background="new 0 0 32 29" xml:space="preserve">
<g>
	<path d="M27.585,13.212c-0.376-0.999-0.991-1.882-1.774-2.577c1.152-0.948,1.945-2.318,2.142-3.874C27.497,6.916,27.008,7,26.5,7
		C24.016,7,22,4.985,22,2.5c0-0.906,0.268-1.75,0.729-2.456C22.49,0.015,22.247,0,22,0c-0.549,0-1.081,0.073-1.586,0.212
		C17.891,0.902,16.029,3.2,16,5.936C14.795,5.337,13.438,5,12,5c-4.904,0-8.894,3.924-8.998,8.803C1.207,14.842,0,16.783,0,19
		c0,3.312,2.688,6,6,6h4.286C10.104,24.702,10,24.352,10,23.977c0-1.055,0.815-1.903,1.847-1.973
		c-0.063-0.572,0.126-1.167,0.567-1.607c0.436-0.436,1.024-0.625,1.593-0.568C14.093,18.802,14.952,18,16,18
		c1.057,0,1.908,0.805,1.994,1.83c0.572-0.062,1.167,0.129,1.605,0.566c0.441,0.442,0.629,1.037,0.567,1.609
		C21.195,22.081,22,22.934,22,23.977c0,0.375-0.104,0.726-0.285,1.023H26c3.312,0,6-2.693,6-6C32,16.234,30.13,13.907,27.585,13.212
		z M23.966,9.484C23.206,9.172,22.373,9,21.5,9c-0.632,0-1.243,0.09-1.82,0.258c-0.018-0.013-0.035-0.025-0.052-0.038
		c-0.368-0.586-0.802-1.127-1.291-1.611C18.12,7.116,18,6.572,18,6c0-1.48,0.805-2.773,2-3.465c0.016,3.009,2.077,5.534,4.863,6.257
		C24.6,9.063,24.298,9.296,23.966,9.484z"/>
	<path d="M20.005,23h-1.591l0.416-0.416c0.391-0.391,0.393-1.02-0.002-1.412c-0.391-0.391-1.027-0.387-1.412-0.002L17,21.586v-1.591
		C17,19.445,16.557,19,16,19c-0.553,0-1,0.456-1,0.995v1.591l-0.416-0.416c-0.39-0.391-1.019-0.393-1.412,0.002
		c-0.391,0.391-0.387,1.027-0.002,1.412L13.586,23h-1.591C11.445,23,11,23.443,11,24c0,0.553,0.456,1,0.995,1h1.591l-0.416,0.416
		c-0.39,0.391-0.392,1.02,0.002,1.412c0.391,0.391,1.027,0.387,1.412,0.002L15,26.414v1.591C15,28.555,15.444,29,16,29
		c0.553,0,1-0.456,1-0.995v-1.591l0.416,0.416c0.391,0.39,1.02,0.393,1.412-0.002c0.391-0.391,0.387-1.027,0.002-1.412L18.414,25
		h1.591C20.555,25,21,24.557,21,24C21,23.447,20.544,23,20.005,23z M16,25c-0.556,0-1-0.447-1-1c0-0.557,0.447-1,1-1
		c0.557,0,1,0.447,1,1C17,24.557,16.553,25,16,25z"/>
</g>
</svg>
