<?xml version="1.0" encoding="utf-8"?>
<!-- Generator: Adobe Illustrator 16.0.4, SVG Export Plug-In . SVG Version: 6.00 Build 0)  -->
<!DOCTYPE svg PUBLIC "-//W3C//DTD SVG 1.1//EN" "http://www.w3.org/Graphics/SVG/1.1/DTD/svg11.dtd">
<svg version="1.1" id="Capa_1" xmlns="http://www.w3.org/2000/svg" xmlns:xlink="http://www.w3.org/1999/xlink" x="0px" y="0px"
	 width="32px" height="20px" viewBox="0 0 32 20" enable-background="new 0 0 32 20" xml:space="preserve">
<g>
	<path d="M21.5,4c-0.641,0-1.26,0.093-1.846,0.266C19.377,3.815,19.061,3.393,18.708,3H5.292C4.755,3.6,4.298,4.271,3.936,5h21.03
		C23.963,4.366,22.773,4,21.5,4z"/>
	<path d="M26.189,6H3.512c-0.225,0.637-0.38,1.307-0.457,2h24.446C27.189,7.252,26.742,6.575,26.189,6z"/>
	<path d="M29.318,9H2.685c-0.77,0.513-1.415,1.197-1.88,2h30.393C30.732,10.197,30.089,9.512,29.318,9z"/>
	<path d="M6,20h20c1.775,0,3.371-0.773,4.471-2H1.528C2.627,19.229,4.224,20,6,20z"/>
	<path d="M0.803,17h30.392c0.353-0.607,0.601-1.282,0.722-2H0.083C0.203,15.718,0.451,16.393,0.803,17z"/>
	<path d="M31.658,12H0.343C0.121,12.626,0,13.299,0,14h32C32,13.299,31.88,12.626,31.658,12z"/>
	<path d="M12,0C9.856,0,7.889,0.749,6.343,2h11.314C16.111,0.749,14.144,0,12,0z"/>
</g>
</svg>
