<?xml version="1.0" encoding="utf-8"?>
<!-- Generator: Adobe Illustrator 16.0.4, SVG Export Plug-In . SVG Version: 6.00 Build 0)  -->
<!DOCTYPE svg PUBLIC "-//W3C//DTD SVG 1.1//EN" "http://www.w3.org/Graphics/SVG/1.1/DTD/svg11.dtd">
<svg version="1.1" id="Capa_1" xmlns="http://www.w3.org/2000/svg" xmlns:xlink="http://www.w3.org/1999/xlink" x="0px" y="0px"
	 width="12px" height="17px" viewBox="0 0 12 17" enable-background="new 0 0 12 17" xml:space="preserve">
<g>
	<path d="M2.558,8c-0.34-0.588-0.535-1.271-0.535-2c0-1.48,0.805-2.773,2.001-3.465C4.036,4.836,5.244,6.854,7.059,8h4.625
		c0.139-0.396,0.238-0.811,0.293-1.239C11.52,6.916,11.032,7,10.523,7c-2.484,0-4.5-2.015-4.5-4.5c0-0.906,0.269-1.75,0.729-2.456
		C6.514,0.015,6.27,0,6.023,0c-0.548,0-1.08,0.073-1.585,0.212C1.893,0.907,0.023,3.235,0.023,6c0,0.701,0.122,1.374,0.342,2H2.558z
		"/>
	<polygon points="3,17 9,17 6,13 	"/>
	<path d="M10.997,10H1.003C0.449,10,0,10.443,0,11c0,0.553,0.456,1,1.003,1h9.994C11.551,12,12,11.557,12,11
		C12,10.447,11.544,10,10.997,10z"/>
</g>
</svg>
