<?xml version="1.0" encoding="utf-8"?>
<!-- Generator: Adobe Illustrator 16.0.4, SVG Export Plug-In . SVG Version: 6.00 Build 0)  -->
<!DOCTYPE svg PUBLIC "-//W3C//DTD SVG 1.1//EN" "http://www.w3.org/Graphics/SVG/1.1/DTD/svg11.dtd">
<svg version="1.1" id="Capa_1" xmlns="http://www.w3.org/2000/svg" xmlns:xlink="http://www.w3.org/1999/xlink" x="0px" y="0px"
	 width="11.953px" height="12px" viewBox="0 0 11.953 12" enable-background="new 0 0 11.953 12" xml:space="preserve">
<path d="M10.5,7C8.016,7,6,4.985,6,2.5c0-0.906,0.269-1.75,0.729-2.456C6.49,0.015,6.247,0,6,0C5.451,0,4.92,0.073,4.415,0.212
	C1.87,0.907,0,3.235,0,6c0,3.312,2.687,6,6,6c3.057,0,5.579-2.285,5.953-5.239C11.497,6.916,11.009,7,10.5,7z M6,10
	c-2.209,0-4-1.791-4-4c0-1.48,0.805-2.773,2.001-3.465c0.016,3.009,2.076,5.533,4.862,6.257C8.139,9.537,7.123,10,6,10z"/>
</svg>
