<?xml version="1.0" encoding="utf-8"?>
<!-- Generator: Adobe Illustrator 16.0.4, SVG Export Plug-In . SVG Version: 6.00 Build 0)  -->
<!DOCTYPE svg PUBLIC "-//W3C//DTD SVG 1.1//EN" "http://www.w3.org/Graphics/SVG/1.1/DTD/svg11.dtd">
<svg version="1.1" id="Capa_1" xmlns="http://www.w3.org/2000/svg" xmlns:xlink="http://www.w3.org/1999/xlink" x="0px" y="0px"
	 width="22px" height="18.875px" viewBox="0 0 22 18.875" enable-background="new 0 0 22 18.875" xml:space="preserve">
<path d="M21.001,6.438h-1.002c-0.034,0-0.067,0.002-0.103,0.005c-0.763-0.72-1.83-1.005-2.896-1.005h-5h-2H4.992
	c-1.062,0-2.127,0.284-2.889,1.005C2.069,6.439,2.035,6.438,2.001,6.438H0.999C0.447,6.438,0,6.881,0,7.438c0,0.553,0.442,1,0.999,1
	h0.085C1.029,8.745,1,9.079,1,9.439c0,2.998,2,3.998,3.99,3.998c1.662,0,4.01-0.5,4.353-2.688c0,0,0.157-1.312,1.657-1.312
	s1.657,1.312,1.657,1.312c0.343,2.188,2.692,2.688,4.337,2.688c2.006,0,4.006-1,4.006-4.001c0-0.361-0.029-0.693-0.084-0.998h0.085
	c0.552,0,0.999-0.444,0.999-1C22,6.885,21.559,6.438,21.001,6.438z"/>
</svg>
