<?xml version="1.0" encoding="utf-8"?>
<!-- Generator: Adobe Illustrator 16.0.4, SVG Export Plug-In . SVG Version: 6.00 Build 0)  -->
<!DOCTYPE svg PUBLIC "-//W3C//DTD SVG 1.1//EN" "http://www.w3.org/Graphics/SVG/1.1/DTD/svg11.dtd">
<svg version="1.1" id="Capa_1" xmlns="http://www.w3.org/2000/svg" xmlns:xlink="http://www.w3.org/1999/xlink" x="0px" y="0px"
	 width="16px" height="20px" viewBox="0 0 16 20" enable-background="new 0 0 16 20" xml:space="preserve">
<g>
	<path d="M6,5.474C6,3.789,3,0,3,0S0,3.789,0,5.474C0,6.869,1.343,8,3,8S6,6.869,6,5.474z"/>
	<path d="M3,17.475C3,18.869,4.343,20,6,20s3-1.131,3-2.525C9,15.789,6,12,6,12S3,15.789,3,17.475z"/>
	<path d="M13,4c0,0-3,3.789-3,5.474C10,10.869,11.343,12,13,12s3-1.131,3-2.526C16,7.789,13,4,13,4z"/>
</g>
</svg>
