<?xml version="1.0" encoding="utf-8"?>
<!-- Generator: Adobe Illustrator 16.0.4, SVG Export Plug-In . SVG Version: 6.00 Build 0)  -->
<!DOCTYPE svg PUBLIC "-//W3C//DTD SVG 1.1//EN" "http://www.w3.org/Graphics/SVG/1.1/DTD/svg11.dtd">
<svg version="1.1" id="Capa_1" xmlns="http://www.w3.org/2000/svg" xmlns:xlink="http://www.w3.org/1999/xlink" x="0px" y="0px"
	 width="22px" height="20px" viewBox="0 0 22 20" enable-background="new 0 0 22 20" xml:space="preserve">
<g>
	<path d="M4,0C1.791,0,0,1.791,0,4s1.791,4,4,4s4-1.791,4-4S6.209,0,4,0z M4,6C2.896,6,2,5.104,2,4s0.896-2,2-2s2,0.896,2,2
		S5.104,6,4,6z"/>
	<path d="M21.003,0H16h-0.998h-0.005C12.236,0.003,10,2.238,10,4.995v4.588V10v0.995V15v4.005C10,19.555,10.444,20,11,20
		c0.553,0,1-0.456,1-0.995V14.99V11h5.003C17.555,11,18,10.557,18,10c0-0.553-0.453-1-0.997-1H12V5.01C12,3.337,13.344,2,15.002,2
		H16h5.003C21.555,2,22,1.556,22,1C22,0.447,21.547,0,21.003,0z"/>
</g>
</svg>
