<?xml version="1.0" encoding="utf-8"?>
<!-- Generator: Adobe Illustrator 16.0.4, SVG Export Plug-In . SVG Version: 6.00 Build 0)  -->
<!DOCTYPE svg PUBLIC "-//W3C//DTD SVG 1.1//EN" "http://www.w3.org/Graphics/SVG/1.1/DTD/svg11.dtd">
<svg version="1.1" id="Capa_1" xmlns="http://www.w3.org/2000/svg" xmlns:xlink="http://www.w3.org/1999/xlink" x="0px" y="0px"
	 width="14.996px" height="12.004px" viewBox="0 0 14.996 12.004" enable-background="new 0 0 14.996 12.004" xml:space="preserve">
<g>
	<path d="M3.992,5C2.459,5,1.061,5.575,0,6.521c1.066,0.715,1.971,1.651,2.647,2.744C3.232,9.093,3.851,9,4.492,9
		c2.269,0,4.267,1.163,5.43,2.925c0.046-0.302,0.07-0.61,0.07-0.925C9.992,7.688,7.306,5,3.992,5z"/>
	<path d="M3.992,4c0.553,0,1-0.444,1-1.01V1.01c0-0.558-0.444-1.01-1-1.01c-0.553,0-1,0.444-1,1.01v1.98
		C2.992,3.548,3.436,4,3.992,4z"/>
	<path d="M11.773,3.222c-0.391-0.39-1.021-0.393-1.42,0.007L8.951,4.631c-0.395,0.393-0.399,1.027-0.006,1.42
		c0.391,0.39,1.021,0.393,1.421-0.007l1.401-1.401C12.162,4.249,12.167,3.616,11.773,3.222z"/>
	<path d="M13.986,10.004h-1.98c-0.558,0-1.01,0.443-1.01,1c0,0.553,0.443,1,1.01,1h1.98c0.558,0,1.01-0.443,1.01-1
		C14.996,10.451,14.552,10.004,13.986,10.004z"/>
</g>
</svg>
