<?xml version="1.0" encoding="utf-8"?>
<!-- Generator: Adobe Illustrator 16.0.4, SVG Export Plug-In . SVG Version: 6.00 Build 0)  -->
<!DOCTYPE svg PUBLIC "-//W3C//DTD SVG 1.1//EN" "http://www.w3.org/Graphics/SVG/1.1/DTD/svg11.dtd">
<svg version="1.1" id="Capa_1" xmlns="http://www.w3.org/2000/svg" xmlns:xlink="http://www.w3.org/1999/xlink" x="0px" y="0px"
	 width="11.953px" height="10.645px" viewBox="0 0 11.953 10.645" enable-background="new 0 0 11.953 10.645" xml:space="preserve">
<path d="M10.5,7C8.016,7,6,4.984,6,2.5c0-0.906,0.269-1.75,0.729-2.456C6.49,0.015,6.246,0,5.999,0C5.45,0,4.919,0.073,4.414,0.212
	C1.886,0.902,0.023,3.206,0,5.948c1.496,0.748,2.754,1.903,3.631,3.318C4.216,9.093,4.835,9,5.476,9
	c1.658,0,3.172,0.622,4.322,1.645c1.158-0.947,1.955-2.32,2.154-3.884C11.496,6.916,11.007,7,10.5,7z"/>
</svg>
