<?xml version="1.0" encoding="utf-8"?>
<!-- Generator: Adobe Illustrator 16.0.4, SVG Export Plug-In . SVG Version: 6.00 Build 0)  -->
<!DOCTYPE svg PUBLIC "-//W3C//DTD SVG 1.1//EN" "http://www.w3.org/Graphics/SVG/1.1/DTD/svg11.dtd">
<svg version="1.1" id="Capa_1" xmlns="http://www.w3.org/2000/svg" xmlns:xlink="http://www.w3.org/1999/xlink" x="0px" y="0px"
	 width="31.996px" height="23px" viewBox="0 0 31.996 23" enable-background="new 0 0 31.996 23" xml:space="preserve">
<g>
	<path d="M13,20.475C13,21.869,14.343,23,16,23s3-1.131,3-2.525C19,18.789,16,15,16,15S13,18.789,13,20.475z"/>
	<path d="M27.583,8.212C26.657,5.751,24.281,4,21.497,4c-0.642,0-1.261,0.093-1.843,0.266C18.066,1.705,15.232,0,11.999,0
		C7.094,0,3.106,3.924,3.002,8.803C1.208,9.842,0,11.783,0,14c0,3.312,2.687,6,6,6h5.48c0.252-0.66,0.585-1.339,0.957-2H5.996
		C3.793,18,2,16.209,2,14c0-1.893,1.317-3.482,3.086-3.896C5.029,9.745,5,9.376,5,9c0-3.866,3.133-7,6.999-7
		c3.161,0,5.833,2.097,6.701,4.975C19.469,6.364,20.439,6,21.497,6c2.317,0,4.224,1.75,4.474,4H26c2.202,0,3.996,1.791,3.996,4
		c0,2.205-1.789,4-3.996,4h-6.438c0.373,0.661,0.705,1.34,0.957,2h5.478c3.313,0,5.999-2.693,5.999-6
		C31.996,11.235,30.126,8.907,27.583,8.212z"/>
</g>
</svg>
