<?xml version="1.0" encoding="utf-8"?>
<!-- Generator: Adobe Illustrator 16.0.4, SVG Export Plug-In . SVG Version: 6.00 Build 0)  -->
<!DOCTYPE svg PUBLIC "-//W3C//DTD SVG 1.1//EN" "http://www.w3.org/Graphics/SVG/1.1/DTD/svg11.dtd">
<svg version="1.1" id="Capa_1" xmlns="http://www.w3.org/2000/svg" xmlns:xlink="http://www.w3.org/1999/xlink" x="0px" y="0px"
	 width="32px" height="30px" viewBox="0 0 32 30" enable-background="new 0 0 32 30" xml:space="preserve">
<g>
	<path d="M20.997,4c0.552,0,1-0.444,1-1.01V1.01c0-0.558-0.444-1.01-1-1.01c-0.554,0-1,0.444-1,1.01v1.98
		C19.997,3.548,20.439,4,20.997,4z"/>
	<path d="M14.624,6.044c0.395,0.394,1.027,0.4,1.421,0.006c0.39-0.39,0.393-1.021-0.007-1.421l-1.401-1.4
		c-0.394-0.394-1.028-0.4-1.42-0.007c-0.39,0.391-0.393,1.021,0.006,1.421L14.624,6.044z"/>
	<path d="M28,11.003c0,0.553,0.443,1,1.01,1h1.98c0.558,0,1.01-0.443,1.01-1c0-0.552-0.443-1-1.01-1h-1.98
		C28.452,10.003,28,10.447,28,11.003z"/>
	<path d="M27.37,6.045l1.399-1.401c0.396-0.395,0.401-1.027,0.008-1.421c-0.391-0.39-1.021-0.393-1.422,0.007l-1.4,1.4
		c-0.393,0.394-0.398,1.028-0.006,1.421C26.339,6.441,26.971,6.444,27.37,6.045z"/>
	<path d="M16,9c0.504,0,1.003,0.021,1.495,0.064C18.178,7.834,19.488,7,20.997,7c2.209,0,4,1.791,4,4
		c0,0.193-0.015,0.383-0.04,0.569c0.613,0.39,1.197,0.819,1.748,1.284c0.189-0.584,0.292-1.207,0.292-1.853c0-3.313-2.687-6-6-6
		c-2.617,0-4.843,1.676-5.663,4.013C15.555,9.004,15.776,9,16,9z"/>
	<path d="M16,10C7.163,10,0,16.716,0,25c0,0.553,0.447,1,1,1s1-0.447,1-1c0-7.18,6.268-13,14-13c7.732,0,14,5.82,14,13
		c0,0.553,0.447,1,1,1s1-0.447,1-1C32,16.716,24.837,10,16,10z"/>
	<path d="M31.007,28H0.993C0.444,28,0,28.443,0,29c0,0.553,0.452,1,0.993,1h30.014C31.557,30,32,29.557,32,29
		C32,28.447,31.548,28,31.007,28z"/>
	<path d="M28,26c0.553,0,1-0.447,1-1c0-6.627-5.82-12-13-12C8.82,13,3,18.373,3,25c0,0.553,0.447,1,1,1s1-0.447,1-1
		c0-5.521,4.925-10,11-10s11,4.479,11,10C27,25.553,27.447,26,28,26z"/>
	<path d="M16,16c-5.522,0-10,4.029-10,9c0,0.553,0.447,1,1,1s1-0.447,1-1c0-3.866,3.582-7,8-7s8,3.134,8,7c0,0.553,0.447,1,1,1
		s1-0.447,1-1C26,20.029,21.521,16,16,16z"/>
</g>
</svg>
