<?xml version="1.0" encoding="utf-8"?>
<!-- Generator: Adobe Illustrator 16.0.4, SVG Export Plug-In . SVG Version: 6.00 Build 0)  -->
<!DOCTYPE svg PUBLIC "-//W3C//DTD SVG 1.1//EN" "http://www.w3.org/Graphics/SVG/1.1/DTD/svg11.dtd">
<svg version="1.1" id="Capa_1" xmlns="http://www.w3.org/2000/svg" xmlns:xlink="http://www.w3.org/1999/xlink" x="0px" y="0px"
	 width="32px" height="20px" viewBox="0 0 32 20" enable-background="new 0 0 32 20" xml:space="preserve">
<path d="M27.586,8.212C26.66,5.751,24.284,4,21.5,4c-0.641,0-1.26,0.093-1.846,0.266C18.068,1.705,15.233,0,12,0
	C7.095,0,3.107,3.924,3.002,8.803C1.208,9.842,0,11.783,0,14c0,3.312,2.687,6,6,6h20c3.312,0,6-2.693,6-6
	C32,11.234,30.13,8.907,27.586,8.212z M26.003,18H5.997C3.794,18,2,16.209,2,14c0-1.893,1.318-3.482,3.086-3.896
	C5.03,9.745,5,9.376,5,9c0-3.866,3.134-7,7-7c3.162,0,5.834,2.097,6.702,4.975C19.471,6.364,20.441,6,21.5,6
	c2.316,0,4.225,1.75,4.473,4h0.03C28.206,10,30,11.791,30,14C30,16.205,28.211,18,26.003,18z"/>
</svg>
