<?xml version="1.0" encoding="utf-8"?>
<!-- Generator: Adobe Illustrator 16.0.4, SVG Export Plug-In . SVG Version: 6.00 Build 0)  -->
<!DOCTYPE svg PUBLIC "-//W3C//DTD SVG 1.1//EN" "http://www.w3.org/Graphics/SVG/1.1/DTD/svg11.dtd">
<svg version="1.1" id="Capa_1" xmlns="http://www.w3.org/2000/svg" xmlns:xlink="http://www.w3.org/1999/xlink" x="0px" y="0px"
	 width="32px" height="23.703px" viewBox="0 0 32 23.703" enable-background="new 0 0 32 23.703" xml:space="preserve">
<g>
	<path d="M20.006,17.777h-1.619l0.447-0.449c0.383-0.383,0.384-1.004-0.005-1.393c-0.386-0.386-1.011-0.388-1.392-0.004L17,16.369
		v-1.541c0-0.555-0.443-1.002-1-1.002c-0.553,0-1,0.449-1,1.002v1.541l-0.437-0.438c-0.383-0.384-1.004-0.384-1.392,0.006
		c-0.386,0.387-0.387,1.01-0.005,1.393l0.448,0.447h-1.62c-0.55,0-0.995,0.438-0.995,0.988c0,0.545,0.442,0.985,0.995,0.985h1.62
		L13.166,20.2c-0.383,0.383-0.384,1.004,0.005,1.393c0.386,0.386,1.01,0.388,1.392,0.005L15,21.162v1.539
		c0,0.553,0.444,1.002,1,1.002c0.553,0,1-0.449,1-1.002v-1.539l0.438,0.436c0.383,0.383,1.004,0.385,1.393-0.006
		c0.386-0.385,0.387-1.01,0.005-1.391l-0.448-0.449h1.62c0.552,0,0.995-0.438,0.995-0.986
		C21.001,18.218,20.559,17.777,20.006,17.777z M16,19.751c-0.553,0-1-0.44-1-0.985c0-0.548,0.447-0.988,1-0.988
		c0.553,0,1,0.44,1,0.988C17,19.311,16.553,19.751,16,19.751z"/>
	<path d="M27.579,8.093C26.648,5.672,24.277,3.95,21.5,3.95c-0.641,0-1.26,0.092-1.846,0.263C18.068,1.684,15.233,0,12,0
		C7.103,0,3.119,3.863,3.003,8.672C1.21,9.692,0,11.621,0,13.826c0,3.273,2.646,5.926,5.926,5.926h4.338
		C10.096,19.462,10,19.125,10,18.766c0-1.056,0.816-1.904,1.85-1.972c-0.068-0.578,0.12-1.178,0.565-1.623
		c0.438-0.438,1.029-0.627,1.6-0.567c0.115-0.996,0.961-1.765,1.986-1.765c1.033,0,1.873,0.771,1.985,1.767
		c0.576-0.064,1.174,0.125,1.613,0.565c0.444,0.445,0.633,1.045,0.564,1.623C21.195,16.869,22,17.723,22,18.766
		c0,0.358-0.096,0.696-0.264,0.985h4.338c3.273,0,5.926-2.658,5.926-5.926C32,11.073,30.127,8.758,27.579,8.093z"/>
</g>
</svg>
