<?xml version="1.0" encoding="utf-8"?>
<!-- Generator: Adobe Illustrator 16.0.4, SVG Export Plug-In . SVG Version: 6.00 Build 0)  -->
<!DOCTYPE svg PUBLIC "-//W3C//DTD SVG 1.1//EN" "http://www.w3.org/Graphics/SVG/1.1/DTD/svg11.dtd">
<svg version="1.1" id="Capa_1" xmlns="http://www.w3.org/2000/svg" xmlns:xlink="http://www.w3.org/1999/xlink" x="0px" y="0px"
	 width="32px" height="29px" viewBox="0 0 32 29" enable-background="new 0 0 32 29" xml:space="preserve">
<g>
	<path d="M27.37,6.045l1.399-1.401c0.396-0.394,0.401-1.027,0.008-1.421c-0.391-0.39-1.021-0.393-1.422,0.007l-1.399,1.401
		c-0.396,0.394-0.401,1.027-0.007,1.421C26.34,6.441,26.971,6.445,27.37,6.045z"/>
	<path d="M20.997,4c0.553,0,1-0.443,1-1.01V1.01c0-0.558-0.442-1.01-1-1.01c-0.552,0-0.999,0.444-0.999,1.01v1.98
		C19.998,3.548,20.441,4,20.997,4z"/>
	<path d="M28,11.004c0,0.552,0.443,1,1.01,1h1.981c0.557,0,1.009-0.444,1.009-1c0-0.553-0.443-1-1.009-1H29.01
		C28.452,10.004,28,10.448,28,11.004z"/>
	<path d="M20.005,23h-1.591l0.416-0.416c0.391-0.391,0.393-1.02-0.002-1.412c-0.391-0.391-1.027-0.387-1.412-0.002L17,21.586v-1.591
		C17,19.445,16.557,19,16,19c-0.553,0-1,0.456-1,0.995v1.591l-0.416-0.416c-0.39-0.391-1.019-0.393-1.412,0.002
		c-0.391,0.391-0.387,1.027-0.002,1.412L13.586,23h-1.591C11.445,23,11,23.443,11,24c0,0.553,0.456,1,0.995,1h1.591l-0.416,0.416
		c-0.39,0.391-0.392,1.02,0.002,1.412c0.391,0.391,1.027,0.387,1.412,0.002L15,26.414v1.591C15,28.555,15.444,29,16,29
		c0.553,0,1-0.456,1-0.995v-1.591l0.416,0.416c0.391,0.39,1.02,0.393,1.412-0.002c0.391-0.391,0.387-1.027,0.002-1.412L18.414,25
		h1.591C20.555,25,21,24.557,21,24C21,23.447,20.544,23,20.005,23z M16,25c-0.556,0-1-0.447-1-1c0-0.557,0.447-1,1-1
		c0.557,0,1,0.447,1,1C17,24.557,16.553,25,16,25z"/>
	<path d="M27.582,13.212c-0.171-0.456-0.391-0.887-0.656-1.287c0.047-0.302,0.071-0.611,0.071-0.925c0-3.313-2.687-6-6-6
		c-1.532,0-2.931,0.575-3.991,1.521C15.574,5.561,13.852,5,11.999,5c-4.904,0-8.893,3.924-8.997,8.803C1.207,14.842,0,16.783,0,19
		c0,3.312,2.687,6,6,6h4.286C10.104,24.702,10,24.352,10,23.977c0-1.055,0.815-1.903,1.847-1.973
		c-0.063-0.572,0.126-1.167,0.567-1.607c0.436-0.436,1.024-0.625,1.593-0.568C14.093,18.802,14.952,18,16,18
		c1.057,0,1.908,0.805,1.994,1.83c0.572-0.062,1.167,0.129,1.605,0.566c0.441,0.442,0.629,1.037,0.567,1.609
		C21.195,22.081,22,22.934,22,23.977c0,0.375-0.104,0.726-0.285,1.023h4.282c3.313,0,5.999-2.693,5.999-6
		C31.996,16.234,30.126,13.907,27.582,13.212z M21.497,9c-0.642,0-1.259,0.093-1.843,0.266c-0.319-0.515-0.688-0.994-1.1-1.432
		C19.229,7.311,20.077,7,20.997,7c1.84,0,3.39,1.241,3.856,2.933C23.873,9.341,22.727,9,21.497,9z"/>
</g>
</svg>
