<?xml version="1.0" encoding="utf-8"?>
<!-- Generator: Adobe Illustrator 16.0.4, SVG Export Plug-In . SVG Version: 6.00 Build 0)  -->
<!DOCTYPE svg PUBLIC "-//W3C//DTD SVG 1.1//EN" "http://www.w3.org/Graphics/SVG/1.1/DTD/svg11.dtd">
<svg version="1.1" id="Capa_1" xmlns="http://www.w3.org/2000/svg" xmlns:xlink="http://www.w3.org/1999/xlink" x="0px" y="0px"
	 width="22px" height="14px" viewBox="0 0 22 14" enable-background="new 0 0 22 14" xml:space="preserve">
<path d="M21.001,7L21.001,7L17,0h-1l-2,3h1l1.333-2h0.237L20,7h-0.001c-0.034,0-0.067,0.002-0.103,0.005C19.134,6.284,18.066,6,17,6
	h-5h-2H4.992C3.93,6,2.865,6.284,2.103,7.005C2.069,7.002,2.035,7,2.001,7H2l3.429-6h0.238L7,3h1L6,0H5L1,7H0.999
	C0.447,7,0,7.444,0,8c0,0.553,0.442,1,0.999,1h0.085C1.029,9.307,1,9.641,1,10.002C1,13,3,14,4.99,14c1.662,0,4.01-0.5,4.353-2.688
	C9.343,11.312,9.5,10,11,10s1.657,1.312,1.657,1.312C13,13.5,15.35,14,16.994,14C19,14,21,13,21,9.998
	C21,9.637,20.971,9.305,20.916,9h0.085C21.553,9,22,8.557,22,8C22,7.447,21.559,7,21.001,7z"/>
</svg>
