<?xml version="1.0" encoding="utf-8"?>
<!-- Generator: Adobe Illustrator 16.0.4, SVG Export Plug-In . SVG Version: 6.00 Build 0)  -->
<!DOCTYPE svg PUBLIC "-//W3C//DTD SVG 1.1//EN" "http://www.w3.org/Graphics/SVG/1.1/DTD/svg11.dtd">
<svg version="1.1" id="Capa_1" xmlns="http://www.w3.org/2000/svg" xmlns:xlink="http://www.w3.org/1999/xlink" x="0px" y="0px"
	 width="12px" height="12px" viewBox="0 0 12 12" enable-background="new 0 0 12 12" xml:space="preserve">
<path d="M6,0C2.687,0,0,2.687,0,6c0,3.312,2.687,6,6,6c3.312,0,6-2.688,6-6C12,2.687,9.312,0,6,0z M7,9.874
	C6.682,9.956,6.346,10,6,10c-2.209,0-4-1.791-4-4s1.791-4,4-4c0.346,0,0.682,0.044,1,0.126C5.274,2.57,4,4.136,4,6
	S5.274,9.43,7,9.874z"/>
</svg>
