<?xml version="1.0" encoding="utf-8"?>
<!-- Generator: Adobe Illustrator 16.0.4, SVG Export Plug-In . SVG Version: 6.00 Build 0)  -->
<!DOCTYPE svg PUBLIC "-//W3C//DTD SVG 1.1//EN" "http://www.w3.org/Graphics/SVG/1.1/DTD/svg11.dtd">
<svg version="1.1" id="Capa_1" xmlns="http://www.w3.org/2000/svg" xmlns:xlink="http://www.w3.org/1999/xlink" x="0px" y="0px"
	 width="16.143px" height="13px" viewBox="0 0 16.143 13" enable-background="new 0 0 16.143 13" xml:space="preserve">
<g>
	<path d="M13.068,11H3.074c-0.554,0-1.004,0.443-1.004,1c0,0.553,0.456,1,1.004,1h9.993c0.555,0,1.003-0.443,1.003-1
		C14.071,11.447,13.615,11,13.068,11z"/>
	<path d="M15.85,3.222c-0.392-0.39-1.021-0.393-1.421,0.007l-1.4,1.4c-0.395,0.395-0.4,1.027-0.007,1.421
		c0.392,0.389,1.021,0.393,1.421-0.007l1.399-1.4C16.238,4.248,16.243,3.616,15.85,3.222z"/>
	<path d="M8.071,3.999c0.553,0,1-0.444,1-1.009V1.009c0-0.557-0.443-1.009-1-1.009c-0.551,0-1,0.443-1,1.009V2.99
		C7.071,3.547,7.515,3.999,8.071,3.999z"/>
	<path d="M3.121,6.05C3.51,5.659,3.514,5.029,3.114,4.629l-1.399-1.4c-0.396-0.395-1.026-0.4-1.421-0.007
		C-0.096,3.613-0.099,4.243,0.3,4.643l1.4,1.4C2.095,6.437,2.728,6.442,3.121,6.05z"/>
	<path d="M4.606,9C5.297,7.805,6.59,6.998,8.071,6.998c1.482,0,2.775,0.807,3.466,2.002h2.192c-0.822-2.331-3.046-4.001-5.658-4.001
		c-2.611,0-4.835,1.67-5.657,4.001H4.606z"/>
</g>
</svg>
