<?xml version="1.0" encoding="utf-8"?>
<!-- Generator: Adobe Illustrator 16.0.4, SVG Export Plug-In . SVG Version: 6.00 Build 0)  -->
<!DOCTYPE svg PUBLIC "-//W3C//DTD SVG 1.1//EN" "http://www.w3.org/Graphics/SVG/1.1/DTD/svg11.dtd">
<svg version="1.1" id="Capa_1" xmlns="http://www.w3.org/2000/svg" xmlns:xlink="http://www.w3.org/1999/xlink" x="0px" y="0px"
	 width="22px" height="16px" viewBox="0 0 22 16" enable-background="new 0 0 22 16" xml:space="preserve">
<g>
	<path d="M5.085,11.997h2.042c-0.082-0.32-0.126-0.655-0.126-1c0-2.209,1.79-3.999,3.999-3.999s3.999,1.79,3.999,3.999
		c0,0.345-0.044,0.68-0.126,1h2.042c0.056-0.325,0.083-0.659,0.083-1c0-3.312-2.686-5.998-5.998-5.998
		c-3.312,0-5.998,2.686-5.998,5.998C5.002,11.338,5.03,11.672,5.085,11.997z"/>
	<path d="M11,3.999c0.552,0,1-0.444,1-1.009V1.009C12,0.452,11.557,0,11,0c-0.552,0-1,0.443-1,1.009V2.99
		C10,3.547,10.444,3.999,11,3.999z"/>
	<path d="M2.99,10H1.009C0.452,10,0,10.443,0,11c0,0.525,0.401,0.956,0.927,0.997h2.144C3.59,11.956,3.999,11.529,3.999,11
		C3.999,10.448,3.555,10,2.99,10z"/>
	<polygon points="8.001,12.996 14.001,12.996 11.001,8.997 	"/>
	<path d="M20.99,10h-1.981C18.452,10,18,10.443,18,11c0,0.525,0.402,0.956,0.927,0.997h2.146C21.592,11.956,22,11.529,22,11
		C22,10.448,21.557,10,20.99,10z"/>
	<path d="M6.05,6.05c0.389-0.391,0.393-1.021-0.007-1.421l-1.4-1.4c-0.395-0.395-1.028-0.4-1.421-0.007
		c-0.39,0.391-0.393,1.021,0.007,1.421l1.4,1.4C5.023,6.437,5.656,6.442,6.05,6.05z"/>
	<path d="M18.777,3.222c-0.391-0.39-1.021-0.393-1.42,0.007l-1.4,1.4c-0.395,0.394-0.398,1.027-0.007,1.421
		c0.391,0.389,1.021,0.393,1.421-0.007l1.4-1.4C19.166,4.248,19.171,3.616,18.777,3.222z"/>
	<path d="M15.997,14H6.003C5.449,14,5,14.443,5,15c0,0.553,0.456,1,1.003,1h9.994C16.551,16,17,15.557,17,15
		C17,14.447,16.544,14,15.997,14z"/>
</g>
</svg>
