<?xml version="1.0" encoding="utf-8"?>
<!-- Generator: Adobe Illustrator 16.0.4, SVG Export Plug-In . SVG Version: 6.00 Build 0)  -->
<!DOCTYPE svg PUBLIC "-//W3C//DTD SVG 1.1//EN" "http://www.w3.org/Graphics/SVG/1.1/DTD/svg11.dtd">
<svg version="1.1" id="Capa_1" xmlns="http://www.w3.org/2000/svg" xmlns:xlink="http://www.w3.org/1999/xlink" x="0px" y="0px"
	 width="28px" height="22px" viewBox="0 0 28 22" enable-background="new 0 0 28 22" xml:space="preserve">
<g>
	<path d="M15.391,16.341L14,8l-1.39,8.341C11.653,16.842,11,17.845,11,19c0,1.657,1.343,3,3,3s3-1.343,3-3
		C17,17.845,16.348,16.842,15.391,16.341z"/>
	<path d="M14,0C6.268,0,0,6.268,0,14c0,2.059,0.444,4.014,1.242,5.773c0.544-0.312,1.147-0.605,1.8-0.875
		C2.372,17.402,2,15.745,2,14C2,7.373,7.373,2,14,2s12,5.373,12,12c0,1.745-0.372,3.402-1.042,4.898
		c0.653,0.27,1.256,0.562,1.8,0.875C27.557,18.014,28,16.059,28,14C28,6.268,21.732,0,14,0z"/>
	<path d="M3.828,18.377l-0.617-1.901l3.805-1.235l0.617,1.902L3.828,18.377z M9.063,8.929l-2.35-3.236l1.62-1.176l2.35,3.237
		L9.063,8.929z M13,3h2v4h-2V3z M7.015,12.801l-3.804-1.236L3.83,9.663l3.804,1.236L7.015,12.801z M20.983,12.8l-0.617-1.902
		l3.806-1.235l0.617,1.901L20.983,12.8z M17.316,7.753l2.352-3.235l1.619,1.176L18.936,8.93L17.316,7.753z M24.172,18.377
		l-3.805-1.235l0.617-1.901l3.805,1.235L24.172,18.377z"/>
</g>
</svg>
