<?xml version="1.0" encoding="utf-8"?>
<!-- Generator: Adobe Illustrator 16.0.4, SVG Export Plug-In . SVG Version: 6.00 Build 0)  -->
<!DOCTYPE svg PUBLIC "-//W3C//DTD SVG 1.1//EN" "http://www.w3.org/Graphics/SVG/1.1/DTD/svg11.dtd">
<svg version="1.1" id="Capa_1" xmlns="http://www.w3.org/2000/svg" xmlns:xlink="http://www.w3.org/1999/xlink" x="0px" y="0px"
	 width="22px" height="20px" viewBox="0 0 22 20" enable-background="new 0 0 22 20" xml:space="preserve">
<g>
	<path d="M15.002,2h1.996C18.661,2,20,3.348,20,5.01V5c0,0.553,0.443,1,1,1c0.553,0,1-0.444,1-1V4.995C22,2.236,19.771,0,16.998,0
		h-1.996C12.238,0,10,2.236,10,4.995v10.01C10,17.764,12.229,20,15.002,20h1.996C19.762,20,22,17.764,22,15.005V15
		c0-0.553-0.443-1-1-1c-0.553,0-1,0.443-1,1v-0.01c0,1.673-1.344,3.01-3.002,3.01h-1.996C13.339,18,12,16.652,12,14.99V5.01
		C12,3.337,13.344,2,15.002,2z"/>
	<path d="M4,0C1.791,0,0,1.791,0,4s1.791,4,4,4s4-1.791,4-4S6.209,0,4,0z M4,6C2.896,6,2,5.104,2,4s0.896-2,2-2s2,0.896,2,2
		S5.104,6,4,6z"/>
</g>
</svg>
