<?xml version="1.0" encoding="utf-8"?>
<!-- Generator: Adobe Illustrator 16.0.4, SVG Export Plug-In . SVG Version: 6.00 Build 0)  -->
<!DOCTYPE svg PUBLIC "-//W3C//DTD SVG 1.1//EN" "http://www.w3.org/Graphics/SVG/1.1/DTD/svg11.dtd">
<svg version="1.1" id="Capa_1" xmlns="http://www.w3.org/2000/svg" xmlns:xlink="http://www.w3.org/1999/xlink" x="0px" y="0px"
	 width="12px" height="32px" viewBox="0 0 12 32" enable-background="new 0 0 12 32" xml:space="preserve">
<g>
	<path d="M10,21.527V4.006C10,1.793,8.205,0,6,0C3.791,0,2,1.787,2,4.006v17.521C0.772,22.626,0,24.223,0,26c0,3.312,2.687,6,6,6
		c3.312,0,6-2.688,6-6C12,24.223,11.229,22.626,10,21.527z M6,30c-2.209,0-4-1.791-4-4c0-1.48,0.805-2.773,2-3.465V4.005
		C4,2.897,4.896,2,6,2c1.111,0,2,0.897,2,2.005v18.53c1.195,0.691,2,1.984,2,3.465C10,28.209,8.209,30,6,30z"/>
	<path d="M6.984,23.166C6.995,23.111,7,23.055,7,22.997v-9.994C7,12.449,6.557,12,6,12c-0.553,0-1,0.456-1,1.003v9.994
		c0,0.058,0.005,0.114,0.014,0.169C3.842,23.573,3,24.688,3,26c0,1.657,1.343,3,3,3s3-1.343,3-3C9,24.688,8.158,23.573,6.984,23.166
		z"/>
</g>
</svg>
