<?xml version="1.0" encoding="utf-8"?>
<!-- Generator: Adobe Illustrator 16.0.4, SVG Export Plug-In . SVG Version: 6.00 Build 0)  -->
<!DOCTYPE svg PUBLIC "-//W3C//DTD SVG 1.1//EN" "http://www.w3.org/Graphics/SVG/1.1/DTD/svg11.dtd">
<svg version="1.1" id="Capa_1" xmlns="http://www.w3.org/2000/svg" xmlns:xlink="http://www.w3.org/1999/xlink" x="0px" y="0px"
	 width="22.568px" height="32.025px" viewBox="0 0 22.568 32.025" enable-background="new 0 0 22.568 32.025" xml:space="preserve">
<g>
	<circle cx="11.3" cy="13.025" r="2"/>
	<path d="M22.29,19.198l-7.994-6.328c0.003,0.051,0.004,0.104,0.004,0.155c0,1.073-0.562,2.014-1.409,2.544
		c0.179,0.486,0.403,0.912,0.869,1.182c1.301,0.75,8.366,2.79,8.366,2.79C22.648,19.694,22.715,19.535,22.29,19.198z"/>
	<path d="M12.707,10.377C13.04,9.978,13.3,9.568,13.3,9.027c0-1.5-1.767-8.643-1.767-8.643c-0.13-0.529-0.301-0.507-0.38,0.029
		L9.67,10.506c0.471-0.304,1.029-0.48,1.63-0.479C11.809,10.027,12.288,10.154,12.707,10.377z"/>
	<path d="M8.302,13.124c-0.51-0.088-0.994-0.107-1.462,0.163c-1.3,0.75-6.6,5.852-6.6,5.852c-0.394,0.375-0.289,0.512,0.215,0.312
		l9.472-3.757C8.988,15.209,8.338,14.244,8.302,13.124z"/>
	<path d="M11.301,16.025c-0.389,0-0.762-0.074-1.104-0.21l-0.896,15.21c0,0,0.5,1,2,1s2-1,2-1l-0.896-15.21
		C12.063,15.951,11.69,16.025,11.301,16.025z"/>
</g>
</svg>
