<?xml version="1.0" encoding="utf-8"?>
<!-- Generator: Adobe Illustrator 16.0.4, SVG Export Plug-In . SVG Version: 6.00 Build 0)  -->
<!DOCTYPE svg PUBLIC "-//W3C//DTD SVG 1.1//EN" "http://www.w3.org/Graphics/SVG/1.1/DTD/svg11.dtd">
<svg version="1.1" id="Capa_1" xmlns="http://www.w3.org/2000/svg" xmlns:xlink="http://www.w3.org/1999/xlink" x="0px" y="0px"
	 width="32px" height="23px" viewBox="0 0 32 23" enable-background="new 0 0 32 23" xml:space="preserve">
<g>
	<path d="M19.973,16C19.99,16.164,20,16.331,20,16.5c0,2.484-2.016,4.5-4.5,4.5c-2.485,0-4.5-2.016-4.5-4.5
		c0-2.316,1.75-4.225,4-4.473V14l4-3l-4-3v2.019c-3.356,0.255-6,3.059-6,6.481c0,3.59,2.91,6.5,6.5,6.5s6.5-2.91,6.5-6.5
		c0-0.168-0.007-0.335-0.018-0.5H19.973z"/>
	<path d="M27.586,8.212C26.66,5.751,24.284,4,21.5,4c-0.641,0-1.26,0.093-1.846,0.266C18.068,1.705,15.233,0,12,0
		C7.095,0,3.107,3.924,3.002,8.803C1.208,9.842,0,11.783,0,14c0,3.312,2.687,6,6,6h1.752c-0.285-0.63-0.495-1.3-0.62-2H5.997
		C3.794,18,2,16.209,2,14c0-1.893,1.318-3.482,3.086-3.896C5.03,9.745,5,9.376,5,9c0-3.866,3.134-7,7-7
		c3.162,0,5.834,2.097,6.702,4.975C19.471,6.364,20.441,6,21.5,6c2.316,0,4.225,1.75,4.473,4h0.03C28.206,10,30,11.791,30,14
		c0,2.205-1.789,4-3.997,4h-2.135c-0.125,0.7-0.335,1.37-0.62,2H26c3.312,0,6-2.693,6-6C32,11.235,30.13,8.907,27.586,8.212z"/>
</g>
</svg>
