<?xml version="1.0" encoding="utf-8"?>
<!-- Generator: Adobe Illustrator 16.0.4, SVG Export Plug-In . SVG Version: 6.00 Build 0)  -->
<!DOCTYPE svg PUBLIC "-//W3C//DTD SVG 1.1//EN" "http://www.w3.org/Graphics/SVG/1.1/DTD/svg11.dtd">
<svg version="1.1" id="Capa_1" xmlns="http://www.w3.org/2000/svg" xmlns:xlink="http://www.w3.org/1999/xlink" x="0px" y="0px"
	 width="25.766px" height="21.906px" viewBox="0 0 25.766 21.906" enable-background="new 0 0 25.766 21.906" xml:space="preserve">
<path d="M25.244,18.504L14.459,1.055c-0.868-1.404-2.28-1.408-3.15,0L0.522,18.504c-1.165,1.885-0.315,3.402,1.889,3.402h20.944
	C25.559,21.906,26.405,20.383,25.244,18.504z M12.884,18.906c-0.553,0-1-0.447-1-1s0.447-1,1-1c0.554,0,1,0.447,1,1
	S13.437,18.906,12.884,18.906z M13.884,13.909c0,0.544-0.446,0.997-1,0.997c-0.556,0-1-0.446-1-0.997V7.903
	c0-0.544,0.447-0.997,1-0.997c0.557,0,1,0.446,1,0.997V13.909z"/>
</svg>
