<?xml version="1.0" encoding="utf-8"?>
<!-- Generator: Adobe Illustrator 16.0.4, SVG Export Plug-In . SVG Version: 6.00 Build 0)  -->
<!DOCTYPE svg PUBLIC "-//W3C//DTD SVG 1.1//EN" "http://www.w3.org/Graphics/SVG/1.1/DTD/svg11.dtd">
<svg version="1.1" id="Capa_1" xmlns="http://www.w3.org/2000/svg" xmlns:xlink="http://www.w3.org/1999/xlink" x="0px" y="0px"
	 width="32px" height="24px" viewBox="0 0 32 24" enable-background="new 0 0 32 24" xml:space="preserve">
<g>
	<path d="M20.005,18h-1.591l0.416-0.416c0.391-0.391,0.393-1.02-0.002-1.412c-0.391-0.391-1.027-0.387-1.412-0.002L17,16.586v-1.591
		C17,14.445,16.557,14,16,14c-0.553,0-1,0.456-1,0.995v1.591l-0.416-0.416c-0.39-0.39-1.019-0.393-1.412,0.002
		c-0.391,0.391-0.387,1.027-0.002,1.412L13.586,18h-1.591C11.445,18,11,18.443,11,19c0,0.553,0.456,1,0.995,1h1.591l-0.416,0.416
		c-0.39,0.391-0.392,1.02,0.002,1.412c0.391,0.391,1.027,0.387,1.412,0.002L15,21.414v1.591C15,23.555,15.444,24,16,24
		c0.553,0,1-0.456,1-0.995v-1.591l0.416,0.416c0.391,0.39,1.02,0.393,1.412-0.002c0.391-0.391,0.387-1.027,0.002-1.412L18.414,20
		h1.591C20.555,20,21,19.557,21,19C21,18.447,20.544,18,20.005,18z M16,20c-0.556,0-1-0.447-1-1c0-0.557,0.447-1,1-1
		c0.557,0,1,0.447,1,1C17,19.557,16.553,20,16,20z"/>
	<path d="M27.586,8.212C26.66,5.751,24.284,4,21.5,4c-0.641,0-1.26,0.093-1.846,0.266C18.068,1.705,15.233,0,12,0
		C7.096,0,3.106,3.924,3.002,8.803C1.207,9.842,0,11.783,0,14c0,3.312,2.687,6,6,6h3.269C9.098,19.706,9,19.364,9,19
		c0-0.365,0.097-0.707,0.267-1h-3.27C3.794,18,2,16.209,2,14c0-1.892,1.317-3.482,3.087-3.896C5.029,9.745,5,9.376,5,9
		c0-3.866,3.134-7,7-7c3.162,0,5.834,2.097,6.702,4.975C19.471,6.364,20.441,6,21.5,6c2.316,0,4.225,1.75,4.473,4h0.03
		C28.206,10,30,11.791,30,14c0,2.205-1.789,4-3.998,4H22.73c0.172,0.294,0.27,0.636,0.27,1c0,0.365-0.098,0.707-0.268,1H26
		c3.312,0,6-2.693,6-6C32,11.235,30.13,8.907,27.586,8.212z"/>
</g>
</svg>
