<?xml version="1.0" encoding="utf-8"?>
<!-- Generator: Adobe Illustrator 16.0.4, SVG Export Plug-In . SVG Version: 6.00 Build 0)  -->
<!DOCTYPE svg PUBLIC "-//W3C//DTD SVG 1.1//EN" "http://www.w3.org/Graphics/SVG/1.1/DTD/svg11.dtd">
<svg version="1.1" id="Capa_1" xmlns="http://www.w3.org/2000/svg" xmlns:xlink="http://www.w3.org/1999/xlink" x="0px" y="0px"
	 width="24.967px" height="18.45px" viewBox="0 0 24.967 18.45" enable-background="new 0 0 24.967 18.45" xml:space="preserve">
<path d="M24.677,12.98L6.429,0.057L5.86,1.277C6.095,1.144,6.3,1.1,6.459,1.174C7.21,1.523,6.684,4.242,5.283,7.245
	c-1.401,3.003-3.145,5.155-3.896,4.804c-0.16-0.074-0.25-0.274-0.298-0.543c-0.178-0.994,0.37-3.163,1.474-5.528
	c1.104-2.367,2.419-4.199,3.296-4.7l0.569-1.221c-1-0.468-3.137,1.995-4.771,5.498c-1.634,3.504-2.146,6.722-1.145,7.189
	l21.627,5.672c0.502,0.233,1.476-0.795,2.176-2.297C25.017,14.62,25.177,13.213,24.677,12.98z M14.345,11.473
	c-0.933,2.002-2.096,3.438-2.597,3.203l-4.601-1.122c0.811-0.818,1.804-2.345,2.667-4.195c0.862-1.85,1.394-3.593,1.499-4.739
	l3.816,2.805C15.63,7.658,15.278,9.471,14.345,11.473z M22.05,15.064c-0.584,1.251-1.26,2.171-1.51,2.054l-3.578-0.871
	c0.645-0.504,1.355-1.463,1.915-2.662c0.56-1.197,0.837-2.361,0.81-3.18l2.967,2.182C22.903,12.704,22.633,13.812,22.05,15.064z"/>
</svg>
