<?xml version="1.0" encoding="utf-8"?>
<!-- Generator: Adobe Illustrator 16.0.4, SVG Export Plug-In . SVG Version: 6.00 Build 0)  -->
<!DOCTYPE svg PUBLIC "-//W3C//DTD SVG 1.1//EN" "http://www.w3.org/Graphics/SVG/1.1/DTD/svg11.dtd">
<svg version="1.1" id="Capa_1" xmlns="http://www.w3.org/2000/svg" xmlns:xlink="http://www.w3.org/1999/xlink" x="0px" y="0px"
	 width="32px" height="32px" viewBox="0 0 32 32" enable-background="new 0 0 32 32" xml:space="preserve">
<g>
	<path d="M27.01,22H26h-7.003C18.445,22,18,22.443,18,23c0,0.553,0.445,1,0.997,1h7.006h0.999C27.553,24,28,24.447,28,25
		c0,0.557-0.448,1-1.01,1H26h-0.99C24.452,26,24,26.443,24,27c0,0.553,0.443,1,1.01,1H26h0.99h0.02c1.651,0,2.99-1.348,2.99-3
		C30,23.343,28.657,22,27.01,22z"/>
	<path d="M19.007,26H18h-2.171C15.939,25.688,16,25.352,16,25c0-1.657-1.343-3-2.99-3h-0.02H12h-0.99C10.452,22,10,22.443,10,23
		c0,0.553,0.443,1,1.01,1H12h1.002C13.553,24,14,24.447,14,25c0,0.557-0.447,1-0.998,1H12H2.993C2.445,26,2,26.443,2,27
		c0,0.553,0.445,1,0.993,1H12h1.01H18h1.002C19.553,28,20,28.447,20,29c0,0.557-0.448,1-1.01,1H18h-0.99C16.452,30,16,30.443,16,31
		c0,0.553,0.443,1,1.01,1H18h0.99h0.02c1.651,0,2.99-1.348,2.99-3C22,27.343,20.657,26,19.007,26z"/>
	<path d="M27.586,8.212C26.66,5.751,24.284,4,21.5,4c-0.641,0-1.26,0.093-1.846,0.266C18.068,1.705,15.233,0,12,0
		C7.096,0,3.106,3.924,3.002,8.803C1.207,9.842,0,11.783,0,14c0,3.312,2.688,6,6,6h20c3.312,0,6-2.693,6-6
		C32,11.235,30.13,8.907,27.586,8.212z M26.003,18H5.997C3.794,18,2,16.209,2,14c0-1.892,1.317-3.482,3.087-3.896
		C5.029,9.745,5,9.376,5,9c0-3.866,3.134-7,7-7c3.162,0,5.834,2.097,6.702,4.975C19.471,6.364,20.441,6,21.5,6
		c2.316,0,4.225,1.75,4.473,4h0.03C28.206,10,30,11.791,30,14C30,16.205,28.211,18,26.003,18z"/>
</g>
</svg>
