<?xml version="1.0" encoding="utf-8"?>
<!-- Generator: Adobe Illustrator 16.0.4, SVG Export Plug-In . SVG Version: 6.00 Build 0)  -->
<!DOCTYPE svg PUBLIC "-//W3C//DTD SVG 1.1//EN" "http://www.w3.org/Graphics/SVG/1.1/DTD/svg11.dtd">
<svg version="1.1" id="Capa_1" xmlns="http://www.w3.org/2000/svg" xmlns:xlink="http://www.w3.org/1999/xlink" x="0px" y="0px"
	 width="22.584px" height="32px" viewBox="0 0 22.584 32" enable-background="new 0 0 22.584 32" xml:space="preserve">
<g>
	<circle cx="11.292" cy="13" r="2"/>
	<path d="M13.172,10.661C12.877,7.532,12.084,0,11.292,0s-1.585,7.532-1.88,10.661C9.927,10.248,10.58,10,11.292,10
		S12.657,10.248,13.172,10.661z"/>
	<path d="M14.26,12.56c0.021,0.143,0.032,0.291,0.032,0.44c0,1.657-1.343,3-3,3s-3-1.343-3-3c0-0.149,0.011-0.297,0.033-0.441
		c-2.556,1.815-8.702,6.279-8.306,6.966c0.395,0.687,7.304-2.387,10.166-3.699L9.292,31c0,0,0.5,1,2,1s2-1,2-1l-0.893-15.173
		c2.863,1.312,9.771,4.386,10.166,3.7C22.962,18.839,16.815,14.374,14.26,12.56z"/>
</g>
</svg>
