<?xml version="1.0" encoding="utf-8"?>
<!-- Generator: Adobe Illustrator 16.0.4, SVG Export Plug-In . SVG Version: 6.00 Build 0)  -->
<!DOCTYPE svg PUBLIC "-//W3C//DTD SVG 1.1//EN" "http://www.w3.org/Graphics/SVG/1.1/DTD/svg11.dtd">
<svg version="1.1" id="Capa_1" xmlns="http://www.w3.org/2000/svg" xmlns:xlink="http://www.w3.org/1999/xlink" x="0px" y="0px"
	 width="10px" height="10px" viewBox="0 0 10 10" enable-background="new 0 0 10 10" xml:space="preserve">
<path d="M9.005,4H7.414L7.83,3.584c0.391-0.39,0.393-1.02-0.002-1.412C7.438,1.781,6.801,1.785,6.416,2.17L6,2.586V0.995
	C6,0.445,5.557,0,5,0C4.447,0,4,0.456,4,0.995v1.591L3.584,2.17c-0.39-0.39-1.02-0.392-1.412,0.002
	C1.781,2.562,1.785,3.199,2.17,3.584L2.586,4H0.995C0.445,4,0,4.444,0,5c0,0.553,0.456,1,0.995,1h1.591L2.17,6.416
	c-0.39,0.391-0.392,1.02,0.002,1.412c0.39,0.391,1.027,0.387,1.412,0.002L4,7.414v1.591C4,9.555,4.444,10,5,10
	c0.553,0,1-0.456,1-0.995V7.414L6.416,7.83c0.391,0.39,1.02,0.393,1.412-0.002C8.219,7.438,8.215,6.801,7.83,6.416L7.414,6h1.591
	C9.555,6,10,5.557,10,5C10,4.447,9.544,4,9.005,4z M5,6C4.444,6,4,5.553,4,5c0-0.556,0.447-1,1-1c0.557,0,1,0.447,1,1
	C6,5.557,5.553,6,5,6z"/>
</svg>
